<?xml version="1.0" encoding="UTF-8"?>
<svg id="Layer_1" xmlns="http://www.w3.org/2000/svg" xmlns:xlink="http://www.w3.org/1999/xlink" version="1.1" viewBox="0 0 469.84 310.52">
  <!-- Generator: Adobe Illustrator 29.1.0, SVG Export Plug-In . SVG Version: 2.1.0 Build 142)  -->
  <defs>
    <style>
      .st0, .st1, .st2, .st3 {
        fill: none;
      }

      .st1 {
        stroke: #dedfe0;
        stroke-width: 2.88px;
      }

      .st1, .st2, .st3 {
        stroke-miterlimit: 10;
      }

      .st4 {
        fill: url(#linear-gradient2);
      }

      .st5 {
        fill: url(#linear-gradient1);
      }

      .st6 {
        fill: url(#linear-gradient9);
      }

      .st7 {
        fill: url(#linear-gradient3);
      }

      .st8 {
        fill: url(#linear-gradient6);
      }

      .st9 {
        fill: url(#linear-gradient8);
      }

      .st10 {
        fill: url(#linear-gradient7);
      }

      .st11 {
        fill: url(#linear-gradient5);
      }

      .st12 {
        fill: url(#linear-gradient4);
      }

      .st2 {
        stroke-width: 5.76px;
      }

      .st2, .st3 {
        stroke: #fff;
      }

      .st13 {
        fill: url(#linear-gradient28);
      }

      .st14 {
        fill: url(#linear-gradient29);
      }

      .st15 {
        fill: url(#linear-gradient18);
      }

      .st16 {
        fill: url(#linear-gradient13);
      }

      .st17 {
        fill: url(#linear-gradient12);
      }

      .st18 {
        fill: url(#linear-gradient15);
      }

      .st19 {
        fill: url(#linear-gradient16);
      }

      .st20 {
        fill: url(#linear-gradient11);
      }

      .st21 {
        fill: url(#linear-gradient10);
      }

      .st22 {
        fill: url(#linear-gradient17);
      }

      .st23 {
        fill: url(#linear-gradient14);
      }

      .st24 {
        fill: url(#linear-gradient19);
      }

      .st25 {
        fill: url(#linear-gradient23);
      }

      .st26 {
        fill: url(#linear-gradient22);
      }

      .st27 {
        fill: url(#linear-gradient24);
      }

      .st28 {
        fill: url(#linear-gradient25);
      }

      .st29 {
        fill: url(#linear-gradient21);
      }

      .st30 {
        fill: url(#linear-gradient20);
      }

      .st31 {
        fill: url(#linear-gradient27);
      }

      .st32 {
        fill: url(#linear-gradient26);
      }

      .st33 {
        fill: #6d6e71;
      }

      .st34 {
        fill: url(#linear-gradient);
      }

      .st35 {
        clip-path: url(#clippath-17);
      }

      .st36 {
        clip-path: url(#clippath-19);
      }

      .st37 {
        clip-path: url(#clippath-11);
      }

      .st38 {
        clip-path: url(#clippath-16);
      }

      .st39 {
        clip-path: url(#clippath-18);
      }

      .st40 {
        clip-path: url(#clippath-10);
      }

      .st41 {
        clip-path: url(#clippath-15);
      }

      .st42 {
        clip-path: url(#clippath-13);
      }

      .st43 {
        clip-path: url(#clippath-14);
      }

      .st44 {
        clip-path: url(#clippath-12);
      }

      .st45 {
        clip-path: url(#clippath-50);
      }

      .st46 {
        clip-path: url(#clippath-55);
      }

      .st47 {
        clip-path: url(#clippath-52);
      }

      .st48 {
        clip-path: url(#clippath-57);
      }

      .st49 {
        clip-path: url(#clippath-54);
      }

      .st50 {
        clip-path: url(#clippath-56);
      }

      .st51 {
        clip-path: url(#clippath-53);
      }

      .st52 {
        clip-path: url(#clippath-51);
      }

      .st53 {
        clip-path: url(#clippath-31);
      }

      .st54 {
        clip-path: url(#clippath-32);
      }

      .st55 {
        clip-path: url(#clippath-33);
      }

      .st56 {
        clip-path: url(#clippath-34);
      }

      .st57 {
        clip-path: url(#clippath-35);
      }

      .st58 {
        clip-path: url(#clippath-39);
      }

      .st59 {
        clip-path: url(#clippath-30);
      }

      .st60 {
        clip-path: url(#clippath-36);
      }

      .st61 {
        clip-path: url(#clippath-37);
      }

      .st62 {
        clip-path: url(#clippath-38);
      }

      .st63 {
        clip-path: url(#clippath-27);
      }

      .st64 {
        clip-path: url(#clippath-29);
      }

      .st65 {
        clip-path: url(#clippath-26);
      }

      .st66 {
        clip-path: url(#clippath-28);
      }

      .st67 {
        clip-path: url(#clippath-20);
      }

      .st68 {
        clip-path: url(#clippath-21);
      }

      .st69 {
        clip-path: url(#clippath-22);
      }

      .st70 {
        clip-path: url(#clippath-23);
      }

      .st71 {
        clip-path: url(#clippath-24);
      }

      .st72 {
        clip-path: url(#clippath-25);
      }

      .st73 {
        clip-path: url(#clippath-41);
      }

      .st74 {
        clip-path: url(#clippath-42);
      }

      .st75 {
        clip-path: url(#clippath-43);
      }

      .st76 {
        clip-path: url(#clippath-44);
      }

      .st77 {
        clip-path: url(#clippath-45);
      }

      .st78 {
        clip-path: url(#clippath-49);
      }

      .st79 {
        clip-path: url(#clippath-40);
      }

      .st80 {
        clip-path: url(#clippath-46);
      }

      .st81 {
        clip-path: url(#clippath-47);
      }

      .st82 {
        clip-path: url(#clippath-48);
      }

      .st83 {
        clip-path: url(#clippath-1);
      }

      .st84 {
        clip-path: url(#clippath-3);
      }

      .st85 {
        clip-path: url(#clippath-4);
      }

      .st86 {
        clip-path: url(#clippath-2);
      }

      .st87 {
        clip-path: url(#clippath-7);
      }

      .st88 {
        clip-path: url(#clippath-6);
      }

      .st89 {
        clip-path: url(#clippath-9);
      }

      .st90 {
        clip-path: url(#clippath-8);
      }

      .st91 {
        clip-path: url(#clippath-5);
      }

      .st92 {
        fill: #fff;
      }

      .st3 {
        stroke-width: 1.44px;
      }

      .st93 {
        fill: #95c93d;
      }

      .st94 {
        fill: url(#New_Gradient_Swatch_1);
      }

      .st95 {
        clip-path: url(#clippath);
      }
    </style>
    <clipPath id="clippath">
      <rect class="st0" width="469.84" height="310.52"/>
    </clipPath>
    <clipPath id="clippath-1">
      <path class="st0" d="M32.15,89.35c-7.6,0-13.77,6.17-13.77,13.77v67.7c0,1.45,1.17,2.62,2.62,2.62h7.17c7.61,0,13.77-6.17,13.77-13.77v-21.42c0-1.45,1.17-2.62,2.62-2.62h24.47v-10.96h-24.47c-1.45,0-2.62-1.17-2.62-2.62v-18.68c0-1.44,1.17-2.61,2.62-2.61h29.06v-11.42h-41.47Z"/>
    </clipPath>
    <linearGradient id="linear-gradient" x1="-404.66" y1="-642.06" x2="-401.78" y2="-642.06" gradientTransform="translate(-18701.96 -11642.66) rotate(-90) scale(29.2 -29.2)" gradientUnits="userSpaceOnUse">
      <stop offset="0" stop-color="#00a7e0"/>
      <stop offset="1" stop-color="#074f94"/>
    </linearGradient>
    <clipPath id="clippath-2">
      <rect class="st0" x="-116.77" y="-53.75" width="693.91" height="449"/>
    </clipPath>
    <clipPath id="clippath-3">
      <path class="st0" d="M99.83,100.77h1.65c3.77,0,6.43.85,8.01,2.53,1.56,1.68,2.35,4.73,2.35,9.12s-.84,7.74-2.53,9.54c-1.69,1.81-4.58,2.71-8.65,2.71h-.83v-23.91ZM89.49,89.35c-7.3,0-13.22,5.92-13.22,13.22v70.88h10.35c7.3,0,13.21-5.92,13.21-13.22v-21.41l19.67,34.39,26.5.24-24.61-42.4c4.94-1.57,8.73-4.1,11.37-7.6,2.63-3.49,3.9-7.79,3.82-12.9,0-3.53-.67-6.73-2-9.6-1.34-2.87-3.26-5.24-5.77-7.13h-.12c-1.26-.94-2.59-1.68-4.01-2.23-1.41-.55-3-1-4.77-1.35-1.77-.36-3.77-.59-6.01-.71-2.24-.11-4.81-.17-7.71-.17h-16.7Z"/>
    </clipPath>
    <linearGradient id="linear-gradient1" y1="-643.51" y2="-643.51" gradientTransform="translate(-18679.34 -11642.66) rotate(-90) scale(29.2 -29.2)" xlink:href="#linear-gradient"/>
    <clipPath id="clippath-4">
      <rect class="st0" x="-116.77" y="-53.75" width="693.91" height="449"/>
    </clipPath>
    <clipPath id="clippath-5">
      <path class="st0" d="M151.11,89.35c-2.44,0-4.41,1.98-4.41,4.41v75.26c0,2.44,1.98,4.42,4.43,4.41l51.99-.22v-11.66h-28.45c-2.43,0-4.41-1.97-4.41-4.41v-16.39c0-2.43,1.97-4.41,4.41-4.41h12.56v-11.66h-12.56c-2.43,0-4.41-1.97-4.41-4.41v-15.1c0-2.43,1.97-4.41,4.41-4.41h27.39v-11.42h-50.95Z"/>
    </clipPath>
    <linearGradient id="linear-gradient2" x1="-404.67" y1="-644.94" x2="-401.79" y2="-644.94" gradientTransform="translate(-18653.14 -11640.23) rotate(-90) scale(29.19 -29.19)" xlink:href="#linear-gradient"/>
    <clipPath id="clippath-6">
      <rect class="st0" x="-116.77" y="-53.75" width="693.91" height="449"/>
    </clipPath>
    <clipPath id="clippath-7">
      <path class="st0" d="M210.16,89.35c-2.43,0-4.41,1.98-4.41,4.41v75.26c0,2.44,1.98,4.42,4.43,4.41l51.99-.22v-11.66h-28.45c-2.44,0-4.41-1.97-4.41-4.41v-16.39c0-2.43,1.97-4.41,4.41-4.41h12.55v-11.66h-12.55c-2.44,0-4.41-1.97-4.41-4.41v-15.1c0-2.43,1.97-4.41,4.41-4.41h27.39v-11.42h-50.95Z"/>
    </clipPath>
    <linearGradient id="linear-gradient3" x1="-404.67" y1="-646.26" x2="-401.79" y2="-646.26" gradientTransform="translate(-18632.63 -11640.23) rotate(-90) scale(29.19 -29.19)" xlink:href="#linear-gradient"/>
    <clipPath id="clippath-8">
      <rect class="st0" x="-116.77" y="-53.75" width="693.91" height="449"/>
    </clipPath>
    <clipPath id="clippath-9">
      <path class="st0" d="M282.82,89.64c-3.18,1.3-5.94,3.08-8.25,5.36-2.32,2.28-4.12,4.99-5.41,8.13-1.3,3.14-1.95,6.56-1.95,10.25,0,2.44.28,4.67.82,6.72.55,2.04,1.41,3.99,2.59,5.83,1.18,1.85,2.69,3.63,4.54,5.36,1.85,1.73,4.1,3.53,6.77,5.42l10.01,6.95c1.97,1.33,3.5,2.43,4.6,3.3,1.1.86,1.9,1.63,2.42,2.29.51.67.82,1.32.94,1.95.12.63.18,1.42.18,2.36.07,1.18-.18,2.26-.77,3.23-.59.98-1.35,1.83-2.3,2.54-.94.7-2.02,1.25-3.24,1.65-1.22.39-2.45.59-3.71.59-2.04,0-4.24-.29-6.59-.88-2.36-.59-4.58-1.26-6.66-2-2.08-.75-4.53-1.75-7.36-3l-2.94-1.53v14.96l3.89,1.17c5.41,1.65,10.11,2.79,14.07,3.42,3.97.63,7.4.95,10.3.95,4.01,0,7.72-.67,11.13-2,3.41-1.34,6.37-3.2,8.89-5.6,2.51-2.39,4.49-5.22,5.94-8.48,1.45-3.26,2.18-6.77,2.18-10.54,0-2.51-.26-4.79-.77-6.83-.51-2.04-1.34-3.94-2.47-5.71-1.14-1.77-2.57-3.46-4.3-5.07-1.73-1.6-3.81-3.24-6.24-4.89l-11.66-7.89c-1.65-1.1-2.96-2.04-3.94-2.83-.98-.78-1.73-1.49-2.24-2.12-.51-.63-.84-1.28-1-1.95-.16-.67-.24-1.47-.24-2.42-.07-2.43.82-4.37,2.71-5.83,1.89-1.45,4.08-2.18,6.6-2.18,1.65,0,3.53.26,5.65.77,2.12.51,4.12,1.08,6.01,1.7,1.88.63,4.12,1.46,6.71,2.47l2.59,1.18v-13.66l-1.41-.35c-5.18-1.34-10.03-2.46-14.55-3.36-4.51-.9-8.27-1.35-11.25-1.35-3.69,0-7.13.65-10.3,1.94"/>
    </clipPath>
    <linearGradient id="linear-gradient4" x1="-403.95" y1="-647.24" x2="-401.07" y2="-647.24" gradientTransform="translate(-19240.08 -12017.27) rotate(-90) scale(30.18 -30.18)" xlink:href="#linear-gradient"/>
    <clipPath id="clippath-10">
      <rect class="st0" x="-116.77" y="-53.75" width="693.91" height="449"/>
    </clipPath>
    <clipPath id="clippath-11">
      <path class="st0" d="M328.84,89.35h15.69c2.17,0,3.94,1.76,3.94,3.94v76.22c0,2.17-1.76,3.94-3.94,3.94h-15.68c-2.17,0-3.94-1.77-3.94-3.94v-76.22c0-2.17,1.76-3.94,3.94-3.94Z"/>
    </clipPath>
    <linearGradient id="linear-gradient5" y1="-648.55" y2="-648.55" gradientTransform="translate(-18601.03 -11642.66) rotate(-90) scale(29.2 -29.2)" xlink:href="#linear-gradient"/>
    <clipPath id="clippath-12">
      <rect class="st0" x="-116.77" y="-53.75" width="693.91" height="449"/>
    </clipPath>
    <clipPath id="clippath-13">
      <path class="st0" d="M384.62,109.96c.87,3.69,1.61,6.81,2.24,9.36.63,2.55,1.26,5.13,1.89,7.72.62,2.59,1.13,4.67,1.53,6.24h-11.54l5.88-23.32ZM379.82,89.11c-1.97,0-3.72,1.28-4.29,3.17l-23.26,75.34c-.89,2.89,1.27,5.82,4.3,5.82h8.84c2.09,0,3.9-1.44,4.38-3.47l5.2-22.26c.48-2.03,2.29-3.47,4.38-3.47h10.18c2.09,0,3.9,1.44,4.38,3.47l5.21,22.26c.48,2.04,2.29,3.47,4.38,3.47h16.04c2.98,0,5.14-2.86,4.32-5.73l-21.46-75.34c-.55-1.93-2.32-3.26-4.32-3.26h-18.26Z"/>
    </clipPath>
    <linearGradient id="linear-gradient6" x1="-404.6" y1="-649.66" x2="-401.72" y2="-649.66" gradientTransform="translate(-18636.11 -11674.44) rotate(-90) scale(29.28 -29.28)" xlink:href="#linear-gradient"/>
    <clipPath id="clippath-14">
      <rect class="st0" x="-116.77" y="-53.75" width="693.91" height="449"/>
    </clipPath>
    <clipPath id="clippath-15">
      <path class="st0" d="M32.15,91.67c-7.6,0-13.77,6.17-13.77,13.77v67.7c0,1.45,1.17,2.62,2.62,2.62h7.17c7.61,0,13.77-6.17,13.77-13.77v-21.42c0-1.45,1.17-2.62,2.62-2.62h24.47v-10.96h-24.47c-1.45,0-2.62-1.17-2.62-2.62v-18.67c0-1.45,1.17-2.62,2.62-2.62h29.06v-11.42h-41.47Z"/>
    </clipPath>
    <linearGradient id="linear-gradient7" x1="-404.71" x2="-401.83" gradientTransform="translate(-18701.96 -11641.86) rotate(-90) scale(29.2 -29.2)" xlink:href="#linear-gradient"/>
    <clipPath id="clippath-16">
      <rect class="st0" x="-116.77" y="-53.75" width="693.91" height="449"/>
    </clipPath>
    <clipPath id="clippath-17">
      <path class="st0" d="M99.83,103.09h1.65c3.77,0,6.43.85,8.01,2.53,1.56,1.69,2.35,4.73,2.35,9.12s-.84,7.74-2.53,9.54c-1.69,1.81-4.58,2.7-8.65,2.7h-.83v-23.91ZM89.49,91.67c-7.3,0-13.22,5.92-13.22,13.22v70.88h10.35c7.3,0,13.21-5.92,13.21-13.22v-21.41l19.67,34.39,26.5.24-24.61-42.4c4.94-1.57,8.73-4.1,11.37-7.6,2.63-3.49,3.9-7.79,3.82-12.89,0-3.53-.67-6.73-2-9.6-1.34-2.87-3.26-5.24-5.77-7.13h-.12c-1.26-.94-2.59-1.69-4.01-2.23-1.41-.55-3-1-4.77-1.36-1.77-.35-3.77-.59-6.01-.71-2.24-.12-4.81-.17-7.71-.17h-16.7Z"/>
    </clipPath>
    <linearGradient id="linear-gradient8" x1="-404.71" y1="-643.51" x2="-401.83" y2="-643.51" gradientTransform="translate(-18679.34 -11641.86) rotate(-90) scale(29.2 -29.2)" xlink:href="#linear-gradient"/>
    <clipPath id="clippath-18">
      <rect class="st0" x="-116.77" y="-53.75" width="693.91" height="449"/>
    </clipPath>
    <clipPath id="clippath-19">
      <path class="st0" d="M151.11,91.67c-2.44,0-4.41,1.97-4.41,4.41v75.26c0,2.44,1.98,4.42,4.43,4.41l51.99-.22v-11.66h-28.45c-2.43,0-4.41-1.98-4.41-4.41v-16.4c0-2.43,1.97-4.41,4.41-4.41h12.56v-11.66h-12.56c-2.43,0-4.41-1.97-4.41-4.41v-15.09c0-2.43,1.97-4.41,4.41-4.41h27.39v-11.42h-50.95Z"/>
    </clipPath>
    <linearGradient id="linear-gradient9" x1="-404.72" y1="-644.94" x2="-401.84" y2="-644.94" gradientTransform="translate(-18653.14 -11639.42) rotate(-90) scale(29.19 -29.19)" xlink:href="#linear-gradient"/>
    <clipPath id="clippath-20">
      <rect class="st0" x="-116.77" y="-53.75" width="693.91" height="449"/>
    </clipPath>
    <clipPath id="clippath-21">
      <path class="st0" d="M210.16,91.67c-2.43,0-4.41,1.97-4.41,4.41v75.26c0,2.44,1.98,4.42,4.43,4.41l51.99-.22v-11.66h-28.45c-2.44,0-4.41-1.98-4.41-4.41v-16.4c0-2.43,1.97-4.41,4.41-4.41h12.55v-11.66h-12.55c-2.44,0-4.41-1.97-4.41-4.41v-15.09c0-2.43,1.97-4.41,4.41-4.41h27.39v-11.42h-50.95Z"/>
    </clipPath>
    <linearGradient id="linear-gradient10" x1="-404.72" y1="-646.26" x2="-401.84" y2="-646.26" gradientTransform="translate(-18632.63 -11639.42) rotate(-90) scale(29.19 -29.19)" xlink:href="#linear-gradient"/>
    <clipPath id="clippath-22">
      <rect class="st0" x="-116.77" y="-53.75" width="693.91" height="449"/>
    </clipPath>
    <clipPath id="clippath-23">
      <path class="st0" d="M282.82,91.96c-3.18,1.3-5.94,3.08-8.25,5.36-2.32,2.28-4.12,4.99-5.41,8.13-1.3,3.14-1.95,6.56-1.95,10.25,0,2.44.28,4.67.82,6.72.55,2.04,1.41,3.99,2.59,5.83,1.18,1.85,2.69,3.63,4.54,5.36,1.85,1.73,4.1,3.53,6.77,5.42l10.01,6.95c1.97,1.34,3.5,2.43,4.6,3.29,1.1.87,1.9,1.63,2.42,2.3.51.67.82,1.32.94,1.94.12.63.18,1.41.18,2.36.07,1.18-.18,2.26-.77,3.23-.59.98-1.35,1.83-2.3,2.53-.94.71-2.02,1.26-3.24,1.65-1.22.39-2.45.59-3.71.59-2.04,0-4.24-.3-6.59-.89-2.36-.59-4.58-1.26-6.66-2-2.08-.75-4.53-1.75-7.36-3.01l-2.94-1.53v14.96l3.89,1.18c5.41,1.65,10.11,2.79,14.07,3.42,3.97.63,7.4.94,10.3.94,4.01,0,7.72-.67,11.13-2,3.41-1.34,6.37-3.2,8.89-5.6,2.51-2.39,4.49-5.22,5.94-8.48,1.45-3.26,2.18-6.77,2.18-10.54,0-2.51-.26-4.79-.77-6.83-.51-2.04-1.34-3.95-2.47-5.71-1.14-1.77-2.57-3.45-4.3-5.07-1.73-1.6-3.81-3.24-6.24-4.89l-11.66-7.89c-1.65-1.1-2.96-2.04-3.94-2.83-.98-.79-1.73-1.49-2.24-2.12-.51-.63-.84-1.28-1-1.95-.16-.67-.24-1.47-.24-2.42-.07-2.43.82-4.37,2.71-5.83,1.89-1.45,4.08-2.18,6.6-2.18,1.65,0,3.53.26,5.65.77,2.12.52,4.12,1.08,6.01,1.71,1.88.63,4.12,1.46,6.71,2.47l2.59,1.18v-13.66l-1.41-.35c-5.18-1.34-10.03-2.45-14.55-3.36-4.51-.9-8.27-1.35-11.25-1.35-3.69,0-7.13.65-10.3,1.94"/>
    </clipPath>
    <linearGradient id="linear-gradient11" x1="-404" y1="-647.24" x2="-401.12" y2="-647.24" gradientTransform="translate(-19240.08 -12016.47) rotate(-90) scale(30.18 -30.18)" xlink:href="#linear-gradient"/>
    <clipPath id="clippath-24">
      <rect class="st0" x="-116.77" y="-53.75" width="693.91" height="449"/>
    </clipPath>
    <clipPath id="clippath-25">
      <rect class="st0" x="324.9" y="91.67" width="23.56" height="84.09" rx="3.94" ry="3.94"/>
    </clipPath>
    <linearGradient id="linear-gradient12" x1="-404.71" y1="-648.55" x2="-401.83" y2="-648.55" gradientTransform="translate(-18601.03 -11641.86) rotate(-90) scale(29.2 -29.2)" xlink:href="#linear-gradient"/>
    <clipPath id="clippath-26">
      <rect class="st0" x="-116.77" y="-53.75" width="693.91" height="449"/>
    </clipPath>
    <clipPath id="clippath-27">
      <path class="st0" d="M384.62,112.27c.87,3.7,1.61,6.81,2.24,9.37.63,2.55,1.26,5.12,1.89,7.72.62,2.59,1.13,4.67,1.53,6.24h-11.54l5.88-23.32ZM379.82,91.43c-1.97,0-3.72,1.28-4.29,3.17l-23.26,75.34c-.89,2.89,1.27,5.82,4.3,5.82h8.84c2.09,0,3.9-1.44,4.38-3.47l5.2-22.26c.48-2.03,2.29-3.47,4.38-3.47h10.18c2.09,0,3.9,1.44,4.38,3.47l5.21,22.26c.48,2.03,2.29,3.47,4.38,3.47h16.04c2.98,0,5.14-2.86,4.32-5.73l-21.46-75.34c-.55-1.93-2.32-3.26-4.32-3.26h-18.26Z"/>
    </clipPath>
    <linearGradient id="linear-gradient13" x1="-404.65" y1="-649.66" x2="-401.77" y2="-649.66" gradientTransform="translate(-18636.11 -11673.64) rotate(-90) scale(29.28 -29.28)" xlink:href="#linear-gradient"/>
    <clipPath id="clippath-28">
      <rect class="st0" x="-116.77" y="-53.75" width="693.91" height="449"/>
    </clipPath>
    <clipPath id="clippath-29">
      <path class="st0" d="M32.15,89.35c-7.6,0-13.77,6.17-13.77,13.77v67.7c0,1.45,1.17,2.62,2.62,2.62h7.17c7.61,0,13.77-6.17,13.77-13.77v-21.42c0-1.45,1.17-2.62,2.62-2.62h24.47v-10.96h-24.47c-1.45,0-2.62-1.17-2.62-2.62v-18.68c0-1.44,1.17-2.61,2.62-2.61h29.06v-11.42h-41.47Z"/>
    </clipPath>
    <clipPath id="clippath-30">
      <rect class="st0" x="-116.77" y="-53.75" width="693.91" height="449"/>
    </clipPath>
    <clipPath id="clippath-31">
      <path class="st0" d="M99.83,100.77h1.65c3.77,0,6.43.85,8.01,2.53,1.56,1.68,2.35,4.73,2.35,9.12s-.84,7.74-2.53,9.54c-1.69,1.81-4.58,2.71-8.65,2.71h-.83v-23.91ZM89.49,89.35c-7.3,0-13.22,5.92-13.22,13.22v70.88h10.35c7.3,0,13.21-5.92,13.21-13.22v-21.41l19.67,34.39,26.5.24-24.61-42.4c4.94-1.57,8.73-4.1,11.37-7.6,2.63-3.49,3.9-7.79,3.82-12.9,0-3.53-.67-6.73-2-9.6-1.34-2.87-3.26-5.24-5.77-7.13h-.12c-1.26-.94-2.59-1.68-4.01-2.23-1.41-.55-3-1-4.77-1.35-1.77-.36-3.77-.59-6.01-.71-2.24-.11-4.81-.17-7.71-.17h-16.7Z"/>
    </clipPath>
    <linearGradient id="linear-gradient14" y1="-643.51" y2="-643.51" gradientTransform="translate(-18679.34 -11642.66) rotate(-90) scale(29.2 -29.2)" xlink:href="#linear-gradient"/>
    <clipPath id="clippath-32">
      <rect class="st0" x="-116.77" y="-53.75" width="693.91" height="449"/>
    </clipPath>
    <clipPath id="clippath-33">
      <path class="st0" d="M151.11,89.35c-2.44,0-4.41,1.98-4.41,4.41v75.26c0,2.44,1.98,4.42,4.43,4.41l51.99-.22v-11.66h-28.45c-2.43,0-4.41-1.97-4.41-4.41v-16.39c0-2.43,1.97-4.41,4.41-4.41h12.56v-11.66h-12.56c-2.43,0-4.41-1.97-4.41-4.41v-15.1c0-2.43,1.97-4.41,4.41-4.41h27.39v-11.42h-50.95Z"/>
    </clipPath>
    <linearGradient id="linear-gradient15" x1="-404.67" y1="-644.94" x2="-401.79" y2="-644.94" gradientTransform="translate(-18653.14 -11640.23) rotate(-90) scale(29.19 -29.19)" xlink:href="#linear-gradient"/>
    <clipPath id="clippath-34">
      <rect class="st0" x="-116.77" y="-53.75" width="693.91" height="449"/>
    </clipPath>
    <clipPath id="clippath-35">
      <path class="st0" d="M210.16,89.35c-2.43,0-4.41,1.98-4.41,4.41v75.26c0,2.44,1.98,4.42,4.43,4.41l51.99-.22v-11.66h-28.45c-2.44,0-4.41-1.97-4.41-4.41v-16.39c0-2.43,1.97-4.41,4.41-4.41h12.55v-11.66h-12.55c-2.44,0-4.41-1.97-4.41-4.41v-15.1c0-2.43,1.97-4.41,4.41-4.41h27.39v-11.42h-50.95Z"/>
    </clipPath>
    <linearGradient id="linear-gradient16" x1="-404.67" y1="-646.26" x2="-401.79" y2="-646.26" gradientTransform="translate(-18632.63 -11640.23) rotate(-90) scale(29.19 -29.19)" xlink:href="#linear-gradient"/>
    <clipPath id="clippath-36">
      <rect class="st0" x="-116.77" y="-53.75" width="693.91" height="449"/>
    </clipPath>
    <clipPath id="clippath-37">
      <path class="st0" d="M282.82,89.64c-3.18,1.3-5.94,3.08-8.25,5.36-2.32,2.28-4.12,4.99-5.41,8.13-1.3,3.14-1.95,6.56-1.95,10.25,0,2.44.28,4.67.82,6.72.55,2.04,1.41,3.99,2.59,5.83,1.18,1.85,2.69,3.63,4.54,5.36,1.85,1.73,4.1,3.53,6.77,5.42l10.01,6.95c1.97,1.33,3.5,2.43,4.6,3.3,1.1.86,1.9,1.63,2.42,2.29.51.67.82,1.32.94,1.95.12.63.18,1.42.18,2.36.07,1.18-.18,2.26-.77,3.23-.59.98-1.35,1.83-2.3,2.54-.94.7-2.02,1.25-3.24,1.65-1.22.39-2.45.59-3.71.59-2.04,0-4.24-.29-6.59-.88-2.36-.59-4.58-1.26-6.66-2-2.08-.75-4.53-1.75-7.36-3l-2.94-1.53v14.96l3.89,1.17c5.41,1.65,10.11,2.79,14.07,3.42,3.97.63,7.4.95,10.3.95,4.01,0,7.72-.67,11.13-2,3.41-1.34,6.37-3.2,8.89-5.6,2.51-2.39,4.49-5.22,5.94-8.48,1.45-3.26,2.18-6.77,2.18-10.54,0-2.51-.26-4.79-.77-6.83-.51-2.04-1.34-3.94-2.47-5.71-1.14-1.77-2.57-3.46-4.3-5.07-1.73-1.6-3.81-3.24-6.24-4.89l-11.66-7.89c-1.65-1.1-2.96-2.04-3.94-2.83-.98-.78-1.73-1.49-2.24-2.12-.51-.63-.84-1.28-1-1.95-.16-.67-.24-1.47-.24-2.42-.07-2.43.82-4.37,2.71-5.83,1.89-1.45,4.08-2.18,6.6-2.18,1.65,0,3.53.26,5.65.77,2.12.51,4.12,1.08,6.01,1.7,1.88.63,4.12,1.46,6.71,2.47l2.59,1.18v-13.66l-1.41-.35c-5.18-1.34-10.03-2.46-14.55-3.36-4.51-.9-8.27-1.35-11.25-1.35-3.69,0-7.13.65-10.3,1.94"/>
    </clipPath>
    <linearGradient id="linear-gradient17" x1="-403.95" y1="-647.24" x2="-401.07" y2="-647.24" gradientTransform="translate(-19240.08 -12017.27) rotate(-90) scale(30.18 -30.18)" xlink:href="#linear-gradient"/>
    <clipPath id="clippath-38">
      <rect class="st0" x="-116.77" y="-53.75" width="693.91" height="449"/>
    </clipPath>
    <clipPath id="clippath-39">
      <path class="st0" d="M328.84,89.35h15.69c2.17,0,3.94,1.76,3.94,3.94v76.22c0,2.17-1.76,3.94-3.94,3.94h-15.68c-2.17,0-3.94-1.77-3.94-3.94v-76.22c0-2.17,1.76-3.94,3.94-3.94Z"/>
    </clipPath>
    <linearGradient id="linear-gradient18" y1="-648.55" y2="-648.55" gradientTransform="translate(-18601.03 -11642.66) rotate(-90) scale(29.2 -29.2)" xlink:href="#linear-gradient"/>
    <clipPath id="clippath-40">
      <rect class="st0" x="-116.77" y="-53.75" width="693.91" height="449"/>
    </clipPath>
    <clipPath id="clippath-41">
      <path class="st0" d="M382.31,109.96c.87,3.69,1.61,6.81,2.24,9.36.62,2.55,1.25,5.13,1.89,7.72.63,2.59,1.13,4.67,1.53,6.24h-11.54l5.88-23.32ZM377.5,89.11c-1.97,0-3.72,1.28-4.3,3.17l-23.26,75.34c-.9,2.89,1.27,5.82,4.29,5.82h8.84c2.09,0,3.9-1.44,4.38-3.47l5.2-22.26c.48-2.03,2.29-3.47,4.38-3.47h10.18c2.09,0,3.91,1.44,4.38,3.47l5.21,22.26c.48,2.04,2.29,3.47,4.38,3.47h16.03c2.99,0,5.14-2.86,4.33-5.73l-21.46-75.34c-.55-1.93-2.31-3.26-4.32-3.26h-18.26Z"/>
    </clipPath>
    <linearGradient id="linear-gradient19" x1="-404.6" y1="-649.61" x2="-401.72" y2="-649.61" gradientTransform="translate(-18636.92 -11674.44) rotate(-90) scale(29.28 -29.28)" xlink:href="#linear-gradient"/>
    <clipPath id="clippath-42">
      <rect class="st0" x="-116.77" y="-53.75" width="693.91" height="449"/>
    </clipPath>
    <clipPath id="clippath-43">
      <path class="st0" d="M32.15,89.35c-7.6,0-13.77,6.17-13.77,13.77v67.7c0,1.45,1.17,2.62,2.62,2.62h7.17c7.61,0,13.77-6.17,13.77-13.77v-21.42c0-1.45,1.17-2.62,2.62-2.62h24.47v-10.96h-24.47c-1.45,0-2.62-1.17-2.62-2.62v-18.68c0-1.44,1.17-2.61,2.62-2.61h29.06v-11.42h-41.47Z"/>
    </clipPath>
    <linearGradient id="New_Gradient_Swatch_1" data-name="New Gradient Swatch 1" x1="-404.66" y1="-642.06" x2="-401.78" y2="-642.06" gradientTransform="translate(-18701.96 -11642.66) rotate(-90) scale(29.2 -29.2)" gradientUnits="userSpaceOnUse">
      <stop offset="0" stop-color="#00a7e0"/>
      <stop offset="1" stop-color="#074f94"/>
    </linearGradient>
    <clipPath id="clippath-44">
      <path class="st0" d="M99.83,100.77h1.65c3.77,0,6.43.85,8.01,2.53,1.56,1.68,2.35,4.73,2.35,9.12s-.84,7.74-2.53,9.54c-1.69,1.81-4.58,2.71-8.65,2.71h-.83v-23.91ZM89.49,89.35c-7.3,0-13.22,5.92-13.22,13.22v70.88h10.35c7.3,0,13.21-5.92,13.21-13.22v-21.41l19.67,34.39,26.5.24-24.61-42.4c4.94-1.57,8.73-4.1,11.37-7.6,2.63-3.49,3.9-7.79,3.82-12.9,0-3.53-.67-6.73-2-9.6-1.34-2.87-3.26-5.24-5.77-7.13h-.12c-1.26-.94-2.59-1.68-4.01-2.23-1.41-.55-3-1-4.77-1.35-1.77-.36-3.77-.59-6.01-.71-2.24-.11-4.81-.17-7.71-.17h-16.7Z"/>
    </clipPath>
    <linearGradient id="linear-gradient20" y1="-643.51" y2="-643.51" gradientTransform="translate(-18679.34 -11642.66) rotate(-90) scale(29.2 -29.2)" xlink:href="#linear-gradient"/>
    <clipPath id="clippath-45">
      <path class="st0" d="M151.11,89.35c-2.44,0-4.41,1.98-4.41,4.41v75.26c0,2.44,1.98,4.42,4.43,4.41l51.99-.22v-11.66h-28.45c-2.43,0-4.41-1.97-4.41-4.41v-16.39c0-2.43,1.97-4.41,4.41-4.41h12.56v-11.66h-12.56c-2.43,0-4.41-1.97-4.41-4.41v-15.1c0-2.43,1.97-4.41,4.41-4.41h27.39v-11.42h-50.95Z"/>
    </clipPath>
    <linearGradient id="linear-gradient21" x1="-404.67" y1="-644.94" x2="-401.79" y2="-644.94" gradientTransform="translate(-18653.14 -11640.23) rotate(-90) scale(29.19 -29.19)" xlink:href="#linear-gradient"/>
    <clipPath id="clippath-46">
      <path class="st0" d="M210.16,89.35c-2.43,0-4.41,1.98-4.41,4.41v75.26c0,2.44,1.98,4.42,4.43,4.41l51.99-.22v-11.66h-28.45c-2.44,0-4.41-1.97-4.41-4.41v-16.39c0-2.43,1.97-4.41,4.41-4.41h12.55v-11.66h-12.55c-2.44,0-4.41-1.97-4.41-4.41v-15.1c0-2.43,1.97-4.41,4.41-4.41h27.39v-11.42h-50.95Z"/>
    </clipPath>
    <linearGradient id="linear-gradient22" x1="-404.67" y1="-646.26" x2="-401.79" y2="-646.26" gradientTransform="translate(-18632.63 -11640.23) rotate(-90) scale(29.19 -29.19)" xlink:href="#linear-gradient"/>
    <clipPath id="clippath-47">
      <path class="st0" d="M282.82,89.64c-3.18,1.3-5.94,3.08-8.25,5.36-2.32,2.28-4.12,4.99-5.41,8.13-1.3,3.14-1.95,6.56-1.95,10.25,0,2.44.28,4.67.82,6.72.55,2.04,1.41,3.99,2.59,5.83,1.18,1.85,2.69,3.63,4.54,5.36,1.85,1.73,4.1,3.53,6.77,5.42l10.01,6.95c1.97,1.33,3.5,2.43,4.6,3.3,1.1.86,1.9,1.63,2.42,2.29.51.67.82,1.32.94,1.95.12.63.18,1.42.18,2.36.07,1.18-.18,2.26-.77,3.23-.59.98-1.35,1.83-2.3,2.54-.94.7-2.02,1.25-3.24,1.65-1.22.39-2.45.59-3.71.59-2.04,0-4.24-.29-6.59-.88-2.36-.59-4.58-1.26-6.66-2-2.08-.75-4.53-1.75-7.36-3l-2.94-1.53v14.96l3.89,1.17c5.41,1.65,10.11,2.79,14.07,3.42,3.97.63,7.4.95,10.3.95,4.01,0,7.72-.67,11.13-2,3.41-1.34,6.37-3.2,8.89-5.6,2.51-2.39,4.49-5.22,5.94-8.48,1.45-3.26,2.18-6.77,2.18-10.54,0-2.51-.26-4.79-.77-6.83-.51-2.04-1.34-3.94-2.47-5.71-1.14-1.77-2.57-3.46-4.3-5.07-1.73-1.6-3.81-3.24-6.24-4.89l-11.66-7.89c-1.65-1.1-2.96-2.04-3.94-2.83-.98-.78-1.73-1.49-2.24-2.12-.51-.63-.84-1.28-1-1.95-.16-.67-.24-1.47-.24-2.42-.07-2.43.82-4.37,2.71-5.83,1.89-1.45,4.08-2.18,6.6-2.18,1.65,0,3.53.26,5.65.77,2.12.51,4.12,1.08,6.01,1.7,1.88.63,4.12,1.46,6.71,2.47l2.59,1.18v-13.66l-1.41-.35c-5.18-1.34-10.03-2.46-14.55-3.36-4.51-.9-8.27-1.35-11.25-1.35-3.69,0-7.13.65-10.3,1.94"/>
    </clipPath>
    <linearGradient id="linear-gradient23" x1="-403.95" y1="-647.24" x2="-401.07" y2="-647.24" gradientTransform="translate(-19240.08 -12017.27) rotate(-90) scale(30.18 -30.18)" xlink:href="#linear-gradient"/>
    <clipPath id="clippath-48">
      <path class="st0" d="M328.84,89.35h15.69c2.17,0,3.94,1.76,3.94,3.94v76.22c0,2.17-1.76,3.94-3.94,3.94h-15.68c-2.17,0-3.94-1.77-3.94-3.94v-76.22c0-2.17,1.76-3.94,3.94-3.94Z"/>
    </clipPath>
    <linearGradient id="linear-gradient24" y1="-648.55" y2="-648.55" gradientTransform="translate(-18601.03 -11642.66) rotate(-90) scale(29.2 -29.2)" xlink:href="#linear-gradient"/>
    <clipPath id="clippath-49">
      <path class="st0" d="M382.31,109.96c.87,3.69,1.61,6.81,2.24,9.36.62,2.55,1.25,5.13,1.89,7.72.63,2.59,1.13,4.67,1.53,6.24h-11.54l5.88-23.32ZM377.5,89.11c-1.97,0-3.72,1.28-4.3,3.17l-23.26,75.34c-.9,2.89,1.27,5.82,4.29,5.82h8.84c2.09,0,3.9-1.44,4.38-3.47l5.2-22.26c.48-2.03,2.29-3.47,4.38-3.47h10.18c2.09,0,3.91,1.44,4.38,3.47l5.21,22.26c.48,2.04,2.29,3.47,4.38,3.47h16.03c2.99,0,5.14-2.86,4.33-5.73l-21.46-75.34c-.55-1.93-2.31-3.26-4.32-3.26h-18.26Z"/>
    </clipPath>
    <linearGradient id="linear-gradient25" x1="-404.6" y1="-649.61" x2="-401.72" y2="-649.61" gradientTransform="translate(-18636.92 -11674.44) rotate(-90) scale(29.28 -29.28)" xlink:href="#linear-gradient"/>
    <clipPath id="clippath-50">
      <path class="st0" d="M322.97,49.15c-6.81,10.93-3.47,25.31,7.46,32.13,10.93,6.81,25.32,3.47,32.13-7.46,6.81-10.93,3.47-25.31-7.46-32.13-3.84-2.39-8.1-3.53-12.31-3.53-7.79,0-15.4,3.9-19.82,11"/>
    </clipPath>
    <linearGradient id="linear-gradient26" x1="-364.06" y1="-597.41" x2="-361.18" y2="-597.41" gradientTransform="translate(-5529.1 9739.11) rotate(-180) scale(16.2 -16.2)" gradientUnits="userSpaceOnUse">
      <stop offset="0" stop-color="#074f94"/>
      <stop offset="1" stop-color="#00a7e0"/>
    </linearGradient>
    <clipPath id="clippath-51">
      <rect class="st0" x="-116.77" y="-53.75" width="693.91" height="449"/>
    </clipPath>
    <clipPath id="clippath-52">
      <path class="st0" d="M312.89,13.91c-7.17,3.62-10.05,12.36-6.43,19.54,3.61,7.17,12.36,10.05,19.53,6.43,7.17-3.61,10.05-12.36,6.44-19.53-2.56-5.07-7.68-8-13-8-2.2,0-4.44.5-6.54,1.56"/>
    </clipPath>
    <linearGradient id="linear-gradient27" x1="-376.91" y1="-702.04" x2="-374.03" y2="-702.04" gradientTransform="translate(4112.19 -7062.83) scale(10.1 -10.1)" xlink:href="#linear-gradient"/>
    <clipPath id="clippath-53">
      <rect class="st0" x="-116.77" y="-53.75" width="693.91" height="449"/>
    </clipPath>
    <clipPath id="clippath-54">
      <path class="st0" d="M361.62,26.01c-4.07,3.08-4.88,8.86-1.8,12.94,3.07,4.07,8.86,4.88,12.93,1.81,4.07-3.08,4.88-8.86,1.81-12.94-1.81-2.4-4.58-3.67-7.38-3.67-1.94,0-3.89.61-5.56,1.86"/>
    </clipPath>
    <linearGradient id="linear-gradient28" x1="-490.16" y1="-630.23" x2="-487.28" y2="-630.23" gradientTransform="translate(-3674.85 -3100.95) rotate(-90) scale(6.41 -6.41)" xlink:href="#linear-gradient"/>
    <clipPath id="clippath-55">
      <rect class="st0" x="-116.77" y="-53.75" width="693.91" height="449"/>
    </clipPath>
    <clipPath id="clippath-56">
      <path class="st0" d="M351.08.69c-3.33,1.64-4.71,5.66-3.07,8.99,1.64,3.33,5.66,4.71,8.99,3.07,3.33-1.64,4.71-5.66,3.07-9-1.17-2.38-3.56-3.76-6.04-3.76-1,0-2.01.22-2.96.69"/>
    </clipPath>
    <linearGradient id="linear-gradient29" x1="-402.97" y1="-493.89" x2="-400.09" y2="-493.89" gradientTransform="translate(-1519.69 2312.2) rotate(-180) scale(4.67 -4.67)" xlink:href="#linear-gradient"/>
    <clipPath id="clippath-57">
      <rect class="st0" x="-116.77" y="-53.75" width="693.91" height="449"/>
    </clipPath>
  </defs>
  <g class="st95">
    <path class="st93" d="M422.53,192.55c-1.38-.71-2.83-1.06-4.36-1.06-2.37,0-4.36.76-5.98,2.27-1.61,1.52-2.42,3.33-2.42,5.45,0,1.47.49,2.94,1.46,4.41s3.12,3.57,6.45,6.28c1.75,1.43,2.88,2.49,3.39,3.18.51.69.77,1.38.77,2.08,0,.76-.34,1.43-1.02,2.01-.68.58-1.52.87-2.52.87-1.91,0-3.61-1.35-5.07-4.05l-4.89,2.95c1.15,2.28,2.53,3.96,4.15,5.03,1.61,1.07,3.51,1.6,5.69,1.6,2.79,0,5.04-.82,6.78-2.45,1.73-1.63,2.6-3.7,2.6-6.21,0-1.29-.25-2.47-.74-3.56-.49-1.09-1.33-2.23-2.51-3.42-.47-.48-1.82-1.65-4.04-3.51-2.37-2.01-3.79-3.32-4.26-3.93-.35-.46-.52-.94-.52-1.45s.24-.97.73-1.38c.49-.41,1.11-.61,1.87-.61,1.57,0,3.11,1.05,4.62,3.16l4.31-3.8c-1.61-1.87-3.1-3.16-4.48-3.86ZM388.88,222.8h16.68v-5.71h-10.9v-8.04h10.9v-5.59h-10.9v-5.52h10.9v-5.69h-16.68v30.55ZM377.73,193.08c-2.33-1.06-4.76-1.6-7.28-1.6-2.96,0-5.73.72-8.3,2.16-2.57,1.44-4.54,3.34-5.92,5.71-1.38,2.37-2.07,5.07-2.07,8.12,0,4.71,1.51,8.57,4.54,11.58,3.02,3.01,6.91,4.52,11.66,4.52,2.58,0,4.87-.43,6.87-1.28,2.01-.85,4.14-2.38,6.4-4.58l-3.94-4.11c-1.67,1.66-3.21,2.81-4.61,3.44-1.4.63-2.94.95-4.63.95-1.98,0-3.78-.45-5.39-1.35-1.62-.9-2.87-2.14-3.76-3.72-.89-1.58-1.33-3.39-1.33-5.43,0-2.92,1-5.38,3-7.38,2-2,4.46-2.99,7.38-2.99,3.46,0,6.57,1.46,9.34,4.39l4.07-3.88c-1.69-1.96-3.7-3.48-6.03-4.54ZM343.37,222.8h5.77v-30.55h-5.77v30.55ZM322.51,222.8h5.61l11.01-30.55h-5.97l-7.8,21.7-7.69-21.7h-5.98l10.82,30.55ZM295.55,197.93h1.59c1.55,0,2.61.11,3.19.32.58.22,1.04.57,1.39,1.06.35.49.52,1.07.52,1.74,0,1.13-.35,1.93-1.05,2.42-.7.49-1.97.73-3.82.73h-1.82v-6.27ZM289.74,222.8h5.81v-12.94h.53l6.87,12.94h6.36l-7.24-13.58c1.94-.69,3.39-1.71,4.35-3.06.96-1.35,1.44-3.03,1.44-5.04s-.44-3.56-1.31-4.96c-.87-1.4-2.02-2.4-3.45-3-1.43-.6-3.83-.9-7.21-.9h-6.16v30.55ZM267.24,222.8h16.68v-5.71h-10.9v-8.04h10.9v-5.59h-10.9v-5.52h10.9v-5.69h-16.68v30.55ZM256.66,192.55c-1.38-.71-2.83-1.06-4.36-1.06-2.37,0-4.36.76-5.98,2.27-1.61,1.52-2.42,3.33-2.42,5.45,0,1.47.49,2.94,1.46,4.41.97,1.47,3.12,3.57,6.45,6.28,1.75,1.43,2.88,2.49,3.39,3.18.51.69.77,1.38.77,2.08,0,.76-.34,1.43-1.02,2.01s-1.52.87-2.52.87c-1.91,0-3.61-1.35-5.08-4.05l-4.89,2.95c1.15,2.28,2.53,3.96,4.15,5.03,1.61,1.07,3.51,1.6,5.69,1.6,2.79,0,5.04-.82,6.78-2.45,1.73-1.63,2.6-3.7,2.6-6.21,0-1.29-.25-2.47-.74-3.56-.49-1.09-1.33-2.23-2.51-3.42-.47-.48-1.82-1.65-4.04-3.51-2.37-2.01-3.79-3.32-4.26-3.93-.35-.46-.52-.94-.52-1.45s.24-.97.73-1.38c.49-.41,1.11-.61,1.87-.61,1.57,0,3.11,1.05,4.62,3.16l4.31-3.8c-1.61-1.87-3.1-3.16-4.48-3.86ZM219.94,192.96c-2.31-.98-4.8-1.47-7.46-1.47-5.08,0-9.21,1.78-12.38,5.34-2.67,2.99-4.01,6.51-4.01,10.55,0,2.95.72,5.7,2.17,8.24,1.45,2.55,3.41,4.51,5.9,5.89,2.48,1.38,5.31,2.07,8.48,2.07,2.96,0,5.54-.63,7.75-1.89,2.2-1.26,3.99-3.09,5.38-5.48,1.38-2.4,2.08-4.93,2.08-7.6l-.04-1.29h-15.37v5.46h8.85c-.85,1.8-1.96,3.12-3.34,3.97-1.38.84-3.07,1.27-5.08,1.27-3.09,0-5.69-1.02-7.8-3.07-2.11-2.05-3.16-4.55-3.16-7.5s1.02-5.27,3.05-7.27c2.03-1.99,4.55-2.99,7.56-2.99,3.45,0,6.47,1.37,9.06,4.11l4.09-4.05c-1.87-2.02-3.78-3.45-5.73-4.28ZM166.02,222.8h5.81v-20.04l13.06,20.04h5.59v-30.55h-5.81v20.1l-13.07-20.1h-5.58v30.55ZM153.67,222.8h5.77v-30.55h-5.77v30.55ZM122.64,222.8h5.81v-20.04l13.06,20.04h5.59v-30.55h-5.81v20.1l-13.07-20.1h-5.58v30.55ZM107.52,210.84h-8.17l4.1-10.49,4.07,10.49ZM88.68,222.8h6.04l2.49-6.29h12.47l2.39,6.29h6.04l-11.75-30.55h-5.9l-11.78,30.55ZM69.05,222.8h16.68v-5.71h-10.9v-8.04h10.9v-5.59h-10.9v-5.52h10.9v-5.69h-16.68v30.55ZM50.31,222.8h14.29v-5.54h-8.47v-25h-5.81v30.55ZM39.18,193.08c-2.33-1.06-4.76-1.6-7.28-1.6-2.96,0-5.73.72-8.3,2.16-2.57,1.44-4.54,3.34-5.92,5.71-1.38,2.37-2.07,5.07-2.07,8.12,0,4.71,1.51,8.57,4.54,11.58,3.02,3.01,6.91,4.52,11.66,4.52,2.58,0,4.87-.43,6.87-1.28,2.01-.85,4.14-2.38,6.4-4.58l-3.94-4.11c-1.67,1.66-3.21,2.81-4.61,3.44-1.4.63-2.94.95-4.63.95-1.98,0-3.78-.45-5.39-1.35-1.62-.9-2.87-2.14-3.76-3.72-.89-1.58-1.33-3.39-1.33-5.43,0-2.92,1-5.38,3-7.38,2-2,4.46-2.99,7.38-2.99,3.46,0,6.57,1.46,9.34,4.39l4.07-3.88c-1.69-1.96-3.7-3.48-6.03-4.54Z"/>
    <path class="st33" d="M302.55,240.86l.13.28.03.21c.14.62.36,1.24.7,1.79.36.68.91.89,1.67.78.46-.07.83-.21,1.17-.48.95-.79,1.81-1.66,2.48-2.66.42-.62.85-1.21,1.28-1.75.47-.59.93-1.22,1.36-1.8l.22-.51.02-.13-.11-.16-.18-.06-.16.07-.41.41c-.99,1.14-1.88,2.31-2.97,3.34-.68.62-1.26,1.36-1.98,1.94l-.43.28-.16.07-.35-.33v-.08c0-.26.04-.52.08-.79.28-1.25.65-2.47,1.07-3.65.51-1.41,1.03-2.83,1.4-4.31.12-.36.11-.66.06-1s-.15-.67-.32-.94l-.39-.33h-.34c-.46.08-1.06.39-1.23.71-.7,1.36-1.4,2.67-1.78,4.1-.21.85-.57,1.59-.97,2.35l-.3.56c-.72,1.23-1.43,2.46-2.35,3.5l-.53.47-.08-.25c-.03-.17.03-.35.09-.79.29-2.02.85-3.96,1.51-5.87.2-.68.39-1.35.59-2.07.09-.27.08-.57.04-.87l-.24-.7c-.19-.4-.37-.46-.79-.39-.58.17-1.1.43-1.44,1-.17.28-.38.62-.54.94-1.11,2.28-1.61,4.68-1.56,7.21,0,.3.05.6.09.89.12.76.36,1.49.71,2.13.35.59.77.79,1.4.69l.25-.04c.62-.18,1.09-.47,1.49-.96.36-.44.72-.93.99-1.4s.51-.9.77-1.41ZM290.15,236.87v.04c0,.52.03.99-.03,1.47l-.29.35h-.08c-.87-.03-1.7-.16-2.46-.6-.38-.24-.59-.47-.63-.72-.03-.21.1-.49.35-.83.24-.38.59-.65.99-.84l.41-.15c.76-.12,1.62.44,1.75,1.28ZM285.35,245.18c0-.22-.02-.43.02-.69.18-1.36.49-2.7,1.07-3.95l.14-.24c.24-.42.34-.61.55-.64.13-.02.35.03.66.11.49.14,1.01.15,1.57.15l.41.15-.08.31c-.4,1.31-.9,2.55-1.63,3.69-.46.67-.97,1.23-1.64,1.63l-.28.13c-.34.05-.72-.23-.79-.65ZM297.19,238.15l-2.19.34c-.76.12-1.52.19-2.33.23-.47.03-.6.05-.63-.2l-.02-.38c.03-.39,0-.78-.04-1.11-.1-.63-.32-1.24-.63-1.84-.44-.88-1.16-1.37-2.19-1.39l-.69.02c-.59.09-1.15.35-1.71.65-1.11.6-1.78,1.57-1.6,2.74.04.25.13.54.26.82l.07.16-.21.33c-.3.26-.56.56-.77.89-.66,1.01-1.1,2.11-1.21,3.33-.04.57-.04,1.13.04,1.67.1.67.34,1.37.7,2,.42.75,1.07,1.08,1.88,1.05.29-.05.55-.08.79-.16,1.26-.45,2.16-1.32,2.9-2.43.87-1.34,1.55-2.82,2.04-4.4q.2-.68.87-.78h.22c.55-.03,1.11-.07,1.7-.16.55-.08,1.09-.21,1.63-.29.46-.07.92-.18,1.36-.38.32-.14.47-.33.43-.54-.07-.2-.25-.22-.67-.16ZM272.52,252.1c-.27,1.33-.69,2.52-1.11,3.7-.92,2.42-2.04,4.66-3.66,6.72-.46.63-1.07,1.15-1.8,1.48l-.45.16h-.08c-.46.08-.85-.2-.92-.66v-.26c.05-.52.23-1.07.45-1.58.5-.98,1.09-1.89,1.68-2.8,1.09-1.59,2.33-3.03,3.62-4.43.59-.65,1.23-1.26,1.82-1.91l.45-.41ZM275.79,247.3l-.1-.07c.04-.31.08-.61.07-.92.11-1.52.18-3.04-.06-4.6l-.05-.29c-.1-.67-.28-1.29-.68-1.88-.29-.51-.72-.75-1.32-.74l-.29.05c-.55.08-.98.32-1.39.73-.42.37-.87.78-1.27,1.23-2.05,2.08-4.08,4.24-6.08,6.36-1.4,1.51-2.77,3.01-4.38,4.29-.42.37-.93.7-1.45.95l-.25.08c-.21.03-.31-.08-.44-.36l-.12-.5-.03-.47c.02-.43.08-.87.14-1.31.18-1.06.4-2.13,1.32-7.39.12-.62.57-3.32.51-3.95-.04-.25-.08-.55-.36-.63-.31-.08-.61-.08-.91-.03l-.41.11c-.37.1-.4.45-.53.73-1.1,4.04-2.2,10.37-2.08,12.5,0,.34.02.69.06.98.07.46.22.87.41,1.27.37.72.9,1.11,1.68,1.12l.81-.04c.46-.07.91-.23,1.31-.46.67-.4,1.28-.93,1.8-1.48.94-.92,1.78-1.87,2.62-2.86,1.38-1.68,2.81-3.32,4.19-4.95,1.09-1.29,2.24-2.54,3.53-3.64.3-.26.61-.52.97-.71l.2-.12.26.26.07.2.19.7c.07.46.06.94.04,1.37.04,2.19-.28,4.35-.64,6.47-.04.31-.17.54-.36.74-1.88,1.79-3.7,3.67-5.37,5.65-1.2,1.43-2.39,2.91-3.3,4.55-.64,1.17-1.06,2.36-.98,3.72l.03.21c.14.93.85,1.59,1.85,1.65.3,0,.6-.05.89-.09.25-.04.55-.08.83-.17,1.24-.36,2.23-1.16,3.03-2.14,1.12-1.38,2.01-2.89,2.8-4.48,1.37-2.88,2.23-5.94,2.78-9.08.1-.49.3-.82.6-1.13,1.32-1.19,2.69-2.39,4.06-3.55,1.26-1.05,2.56-2.12,3.82-3.17.27-.21.54-.43.67-.71l.05-.27-.06-.12-.31-.04c-.29.09-.52.25-.75.42-2.24,1.68-4.42,3.43-6.61,5.19-.3.3-.65.53-1,.8ZM242.98,240.2c-.31,1.08-.62,2.16-.92,3.24.49-1.02.84-2.11.92-3.24ZM239.99,233.04c.56.3,1.08.61,1.58,1.05l.28-.13c.12-.32.25-.64.37-.96l-.21-.27-2.02.31ZM231.53,247.47c-.13-.84-1.15-1.59-1.89-1.35-.7.24-1.23.66-1.56,1.36-.27.51-.23.72.25,1.08.84.69,1.84.79,2.89.85l.3-.26c.04-.57.04-1.13,0-1.68ZM227.45,256.79l.32-.18c.35-.23.7-.49,1-.8,1.2-1.43,1.85-3.08,2.36-4.8.08-.31.03-.39-.32-.38-.64.01-1.34-.05-1.97-.21q-.54-.17-.77.29c-.93,1.52-1.31,3.22-1.48,4.96v.52c.05.38.44.66.86.6ZM248.06,230.64c2.48-.38,5.03-.6,7.59-.78,1.36-.12,2.72-.25,4.04-.32.3,0,.56,0,.83.09.28.13.3.3.07.46l-.49.2c-1.01.16-2.02.31-3.08.39-.3,0-.59.09-.93.1-1.73.22-3.46.45-5.19.67-1.7.17-3.41.48-5.14.7-.42.06-.61.22-.72.67-.31,1.04-.62,2.12-.94,3.16-.12.36-.11.71.03,1.03.55,1.34.46,2.73.12,4.11-.47,2.01-1.34,3.87-2.41,5.58-.34.57-.64,1.13-.99,1.66-.24.38-.44.8-.55,1.2-1.25,4.2-2.51,8.35-3.76,12.54-.47,1.45-.89,2.89-1.35,4.38-.15.45-.26.56-.61.52-.57-.04-.76-.18-.83-.65-.1-.37-.07-.76,0-1.16.52-3.35.99-6.74,1.81-10.09.37-1.52.74-3.04,1.11-4.52q.1-.45-.37-.42c-.85.09-1.7.17-2.54.26-.42.06-.43.02-.54.43-.35,1.35-.89,2.59-1.52,3.81-.51.9-1.03,1.71-1.78,2.43-.71.71-1.54,1.18-2.59,1.35-1.02.11-1.76-.25-2.24-1.16-.5-1.04-.71-2.09-.71-3.21.06-1.56.58-2.97,1.46-4.23.22-.25.44-.5.71-.71l.1-.45-.14-.32c-.38-1.06-.14-2.04.68-2.86.57-.52,1.25-.84,1.99-1.04.37-.14.74-.24,1.17-.22,1.2-.05,2.06.5,2.57,1.59.45.96.69,1.96.64,3.04l-.02.17q0,.34.31.34h.52c.72-.06,1.44-.17,2.12-.19.47-.03.65-.23.8-.68.71-2.65,1.51-5.31,2.35-7.94.47-1.45.97-2.9,1.44-4.35.17-.54.16-.63-.32-.98-.58-.43-1.19-.76-1.91-.95-1.3-.36-2.62-.5-3.98-.38-1.27.15-2.54.26-3.81.41l-.43-.02c-.48-.01-.58-.13-.64-.5-.07-.46.06-.7.53-.77.91-.23,1.8-.32,2.73-.42.98-.06,1.96-.13,2.93-.24,1.98-.3,3.96-.57,5.98-.83.46-.07.7-.24.88-.7l2.39-6.31c.21-.59.44-.76.97-.67.35.03.5.18.55.52.11.46.06.94-.04,1.43-.33,1.51-.74,3-1.16,4.48q-.23.72.52.61c.59-.09,1.18-.18,1.77-.27ZM214.27,261.44c-.08.61-.34,1.13-.57,1.64-.76,1.75-1.53,3.46-2.53,5.08-.83,1.33-1.8,2.6-3.02,3.61l-.59.39-.23.16-.13-.02-.12-.2v-.22c0-.34.13-.62.21-.93.45-1.27,1.14-2.41,1.91-3.52,1.23-1.82,2.69-3.51,4.21-5.08.3-.3.55-.6.85-.91ZM218.73,255.42l-.1-.07.06-.44c.25-1.76.32-3.49.22-5.29l-.04-.51c-.05-.34-.14-.62-.27-.95-.22-.61-.67-1.02-1.41-1.03l-.69.02c-.55.08-.98.32-1.39.77l-.45.46c-1.45,1.77-3.04,3.44-4.59,5.14-1.87,2.1-3.85,4.08-6.05,5.75-.69.54-1.43,1.04-2.2,1.37l-.29.09c-.25.04-.45-.1-.58-.43l-.12-.5-.03-.47c.06-.7.26-1.37.51-2.02,1.05-2.44,2.38-4.67,4.24-6.59.89-.91,1.89-1.71,3.06-2.23l.58-.17c.63-.1,1.18.12,1.66.69.36.38.56.82.63,1.32l.03.17.26.26h.08s.28-.4.28-.4c.11-.4.17-.84.15-1.27l-.04-.51c-.18-1.18-1.04-2.03-2.32-2.23-.58-.13-1.18-.12-1.73-.04-.29.05-.58.13-.87.22-1.31.42-2.4,1.19-3.34,2.11-1.35,1.33-2.44,2.87-3.35,4.52-.87,1.64-1.55,3.38-1.78,5.22-.11.71-.14,1.36-.03,2.03.05.29.09.59.22.87.28.69.77,1.09,1.52,1.19.44.06.82.05,1.25-.02.46-.07.87-.22,1.31-.46.71-.41,1.33-.85,1.94-1.37,1.53-1.23,2.87-2.64,4.2-4.05,1.82-1.91,3.62-3.91,5.54-5.71.45-.46.9-.87,1.39-1.29l.2-.12.21.27c.07.46.1.93.08,1.37-.14,2.43-.64,4.79-1.27,7.17l-.43.58c-.95.83-1.89,1.71-2.78,2.62-1.91,1.89-3.61,3.96-4.98,6.23-.73,1.14-1.32,2.35-1.59,3.69-.14.49-.15.97-.07,1.48l.05.29c.12.5.35.85.83.95.44.06.83.09,1.29.02l.58-.13c.53-.21,1-.5,1.47-.83,2.08-1.57,3.62-3.61,4.82-5.86,1.58-2.87,2.62-5.95,3.42-9.09.1-.45.31-.78.65-1.09,2.72-2.44,5.41-4.83,8.3-7.09l.37-.4.04-.31-.38-.24c-.29.05-.53.17-.77.33-.51.34-1.02.67-1.48,1.04-1.92,1.5-3.78,3.12-5.65,4.7l-.39.27ZM179.56,258.17l-.63.1-.27-.09-.06-.12.22-.55c.49-1.32,1.17-2.5,2.03-3.58.29-.35.62-.7,1.01-.97l.53-.21c.46-.07.95.03,1.21.33l.15.41c.06.38.03.73-.09,1.09-.48,1.62-1.61,2.7-3.15,3.32-.28.13-.61.22-.95.27ZM179.7,259.4c2.26-.39,3.97-1.6,5.03-3.66.43-.84.67-1.78.54-2.67-.08-.5-.28-.99-.62-1.5-.56-.86-1.31-1.26-2.33-1.15l-.25.04c-1.09.17-2.11.58-2.91,1.26-2.28,1.94-3.58,4.42-3.81,7.43-.05.52,0,1.08.07,1.58.14.88.43,1.7.9,2.49.53.91,1.35,1.47,2.44,1.61.4.07.78.05,1.16,0,.38-.06.75-.16,1.12-.3,1.34-.51,2.52-1.25,3.59-2.14.66-.49,1.21-1.09,1.77-1.65,1.2-1.13,2.37-2.26,3.47-3.46l.34-.57.05-.22-.12-.2-.27-.09-.17.03c-.28.13-.47.33-.7.49-1.28,1.19-2.56,2.42-3.84,3.56-1.06.94-2.22,1.8-3.45,2.47-.39.23-.85.35-1.27.41l-.38.06c-.55.04-1.05-.14-1.48-.42-.28-.17-.46-.45-.51-.78l-.03-.21c-.1-.63-.03-1.29.05-1.9.04-.31.11-.4.28-.43h.26c.34,0,.73-.02,1.06-.07ZM166.77,244.82c-.15-.41-.25-.78-.31-1.2l-.07-.72c-.13-1.96-.08-3.9.26-5.85.52-2.79,1.45-5.39,3.12-7.71.17-.28.43-.54.7-.8l.24-.12.34.25.16.45.03.21c.04.81-.06,1.6-.19,2.4-.29,1.21-.62,2.38-1,3.55-.96,3.03-1.96,6.03-3.05,9.03l-.22.51ZM144.58,249.77l-.13.58c-.5,2.1-.94,4.28-1.38,6.41-1.02,5.67-1.74,11.37-1.85,17.12-.06,1.56-.03,3.15.04,4.73.06,1.24.16,2.47.27,3.7.04.51.12,1.06.2,1.56.19,1.22.45,2.38.8,3.54.18.62.43,1.14.85,1.59.37.42.83.65,1.34.61l.68-.06c.59-.09,1.16-.31,1.6-.76.27-.21.53-.47.8-.68,1.15-1.21,2.01-2.59,2.87-4.01,1.31-2.1,2.48-4.34,3.64-6.54,2.24-4.22,4.33-8.54,6.33-12.9,2.07-4.45,4-8.97,5.84-13.55l.18-.2h.04c.27.34.54.73.9,1.06,1.73,1.76,3.61,3.32,5.71,4.68.58.39,1.19.72,1.82.93.46.19.95.28,1.41.21l.53-.17c.24-.12.44-.24.52-.51l.05-.27-.42-.24c-.76.07-1.45-.21-2.07-.59-1.28-.75-2.42-1.74-3.55-2.68-1.59-1.39-2.82-2.97-3.76-4.85l-.1-.37.05-.52c.22-.51.4-1.01.54-1.5,1.42-3.92,2.66-7.9,3.85-11.91.52-1.67.82-3.35.68-5.1l-.06-.38c-.07-.46-.18-.92-.42-1.36-.25-.48-.63-.76-1.19-.76l-.68.06c-.63.1-1.24.32-1.73.78-.38.36-.71.71-1.03,1.15-1.16,1.43-1.94,3.1-2.52,4.86-1.13,3.27-1.34,6.66-1,10.05.06.38.07.76.13,1.14.18,1.18.49,2.38.93,3.52l.03.17-.05.52c-.17.33-.28.73-.44,1.06-1.71,4.31-3.64,8.52-5.49,12.72-1.09,2.45-2.28,4.78-3.42,7.15-1.68,3.62-3.55,7.17-5.51,10.66-.98,1.74-2.06,3.42-3.23,5.02-.47.59-.99,1.14-1.55,1.66l-.2.12-.24-.18-.25-.52c-.14-.32-.24-.7-.29-1.03-.05-.29-.04-.55-.09-.85-.18-2-.14-3.98-.06-5.97.12-3.98.5-7.95,1.01-11.91.6-4.48,1.39-8.91,2.3-13.31.7-3.29,1.58-6.53,2.41-9.8.65-2.47,1.22-4.97,1.82-7.47.16-.67.23-1.33.12-2l-.13-.58c-.17-.53-.32-.68-.91-.59l-.88.14c-.42.06-.64.31-.79.77-.42,1.44-.95,2.81-1.46,4.23-.9,2.25-1.9,4.47-2.97,6.7-1.21,2.51-2.41,5.06-3.71,7.54-1.73,3.32-3.5,6.65-5.37,9.91-1.41,2.58-3.02,5.03-4.77,7.36-.53.73-1.16,1.38-1.8,2.04l-.5.38c-.17.03-.24-.18-.39-.59v-.08c-.06-.29-.15-.58-.19-.88-.06-.42-.09-.85-.11-1.27,0-1.16.12-2.3.29-3.45.38-2,.9-3.97,1.37-5.94.89-3.75,1.87-7.43,3.03-11.1.83-2.75,1.71-5.43,2.76-8.09.09-.27.18-.5.27-.77l.61.34c-.18-.36-.3-.56-.33-.72-.04-.25.06-.44.28-.95l.03-.09c.24-.42.26-.86.18-1.32l-.12-.5c-.1-.37-.29-.51-.72-.49l-.88.14c-.55.08-.98.37-1.34.81-.29.35-.58.73-.81,1.16-1.21,2.21-2.14,4.55-2.94,6.95-.96,2.73-1.83,5.49-2.56,8.27-.87,3.28-1.58,6.53-2.01,9.87-.3,2.24-.34,4.49,0,6.67.11.71.27,1.47.46,2.17.15.71.39,1.4.87,2.02.38.54.94.8,1.58.75l.55-.04c.97-.15,1.81-.58,2.47-1.33.55-.6,1.06-1.24,1.56-1.92.89-1.21,1.77-2.51,2.51-3.83,1.94-3.35,3.78-6.78,5.48-10.27,1.21-2.51,2.37-5.01,3.58-7.52l.21-.29Z"/>
    <g class="st83">
      <rect class="st34" x="18.38" y="89.35" width="55.24" height="84.09"/>
    </g>
    <g class="st86">
      <path class="st2" d="M18.38,103.12c0-7.61,6.17-13.77,13.77-13.77h41.47v11.42h-29.06c-1.45,0-2.62,1.17-2.62,2.62v18.68c0,1.44,1.17,2.61,2.62,2.61h24.47v10.96h-24.47c-1.45,0-2.62,1.17-2.62,2.62v21.42c0,7.61-6.17,13.77-13.77,13.77h-7.17c-1.45,0-2.62-1.17-2.62-2.62v-67.7Z"/>
    </g>
    <g class="st84">
      <rect class="st5" x="76.27" y="89.35" width="69.73" height="84.09"/>
    </g>
    <g class="st85">
      <path class="st2" d="M86.61,173.44h-10.34v-70.88c0-7.3,5.92-13.22,13.22-13.22h16.7c2.9,0,5.47.06,7.71.17,2.24.12,4.24.35,6.01.71,1.77.36,3.36.81,4.77,1.36,1.41.55,2.75,1.3,4.01,2.23h.12c2.51,1.89,4.44,4.26,5.77,7.13,1.33,2.87,2,6.07,2,9.6.08,5.1-1.2,9.41-3.82,12.9-2.64,3.5-6.42,6.03-11.37,7.59l24.61,42.4-26.5-.23-19.67-34.39v21.41c0,7.3-5.92,13.21-13.22,13.21ZM100.65,124.68c4.08,0,6.96-.9,8.65-2.71,1.69-1.81,2.53-4.99,2.53-9.54s-.79-7.44-2.35-9.13c-1.57-1.69-4.24-2.53-8.01-2.53h-1.65v23.91h.82Z"/>
    </g>
    <g class="st91">
      <rect class="st4" x="146.7" y="89.35" width="56.42" height="84.09"/>
    </g>
    <g class="st88">
      <path class="st2" d="M146.7,93.76c0-2.43,1.97-4.41,4.41-4.41h50.95v11.42h-27.39c-2.43,0-4.41,1.97-4.41,4.41v15.09c0,2.43,1.97,4.41,4.41,4.41h12.56v11.66h-12.56c-2.43,0-4.41,1.97-4.41,4.41v16.4c0,2.43,1.97,4.41,4.41,4.41h28.45v11.66l-51.99.22c-2.44.01-4.43-1.97-4.43-4.41v-75.26Z"/>
    </g>
    <g class="st87">
      <rect class="st7" x="205.76" y="89.35" width="56.42" height="84.09"/>
    </g>
    <g class="st90">
      <path class="st2" d="M205.76,93.76c0-2.43,1.97-4.41,4.41-4.41h50.95v11.42h-27.39c-2.43,0-4.41,1.97-4.41,4.41v15.09c0,2.43,1.97,4.41,4.41,4.41h12.56v11.66h-12.56c-2.43,0-4.41,1.97-4.41,4.41v16.4c0,2.43,1.97,4.41,4.41,4.41h28.45v11.66l-51.99.22c-2.44.01-4.43-1.97-4.43-4.41v-75.26Z"/>
    </g>
    <g class="st89">
      <rect class="st12" x="266.5" y="87.7" width="56.42" height="86.93"/>
    </g>
    <g class="st40">
      <path class="st2" d="M266.5,154.13l2.94,1.54c2.83,1.26,5.28,2.26,7.36,3,2.08.74,4.3,1.41,6.66,2,2.35.59,4.55.89,6.6.89,1.26,0,2.49-.2,3.71-.59s2.3-.94,3.24-1.65c.94-.71,1.7-1.56,2.3-2.54.59-.98.84-2.06.77-3.23,0-.94-.06-1.73-.18-2.36-.12-.63-.43-1.27-.94-1.94-.51-.67-1.32-1.43-2.42-2.3-1.1-.86-2.63-1.96-4.6-3.3l-10.01-6.95c-2.67-1.88-4.93-3.69-6.77-5.42-1.84-1.73-3.36-3.51-4.53-5.36-1.18-1.84-2.04-3.78-2.59-5.83-.55-2.04-.82-4.28-.82-6.72,0-3.69.65-7.11,1.94-10.25,1.3-3.14,3.1-5.85,5.42-8.13,2.31-2.28,5.07-4.06,8.25-5.36,3.18-1.3,6.61-1.94,10.3-1.94,2.98,0,6.73.45,11.25,1.35,4.52.9,9.37,2.02,14.55,3.36l1.41.35v13.66l-2.59-1.18c-2.59-1.02-4.83-1.84-6.71-2.47-1.89-.63-3.89-1.19-6.01-1.7-2.12-.51-4-.77-5.65-.77-2.52,0-4.71.73-6.6,2.18-1.88,1.45-2.78,3.4-2.71,5.83,0,.94.08,1.75.24,2.42.16.67.49,1.32,1,1.95.51.63,1.26,1.33,2.24,2.12.98.79,2.3,1.73,3.95,2.83l11.66,7.89c2.43,1.65,4.51,3.28,6.24,4.89,1.73,1.61,3.16,3.3,4.3,5.07,1.13,1.77,1.96,3.67,2.47,5.71.51,2.04.77,4.32.77,6.83,0,3.77-.73,7.29-2.18,10.54-1.45,3.26-3.44,6.09-5.95,8.48-2.51,2.4-5.48,4.26-8.89,5.6-3.42,1.33-7.13,2-11.13,2-2.91,0-6.34-.31-10.3-.94-3.97-.63-8.66-1.77-14.07-3.42l-3.89-1.17v-14.96Z"/>
    </g>
    <g class="st37">
      <rect class="st11" x="324.9" y="89.35" width="23.56" height="84.09"/>
    </g>
    <g class="st44">
      <rect class="st2" x="324.9" y="89.35" width="23.56" height="84.09" rx="3.94" ry="3.94"/>
    </g>
    <g class="st42">
      <rect class="st8" x="351.37" y="89.11" width="73.31" height="84.33"/>
    </g>
    <g class="st43">
      <path class="st2" d="M352.26,167.62l23.26-75.34c.58-1.88,2.32-3.17,4.3-3.17h18.26c2.01,0,3.77,1.33,4.33,3.26l21.46,75.34c.82,2.87-1.34,5.73-4.32,5.73h-16.04c-2.09,0-3.9-1.44-4.38-3.47l-5.2-22.26c-.48-2.03-2.29-3.47-4.38-3.47h-10.18c-2.09,0-3.9,1.44-4.38,3.47l-5.21,22.26c-.48,2.03-2.29,3.47-4.38,3.47h-8.84c-3.03,0-5.19-2.93-4.3-5.82ZM390.28,133.28c-.39-1.57-.9-3.65-1.53-6.24-.63-2.59-1.26-5.16-1.89-7.72-.62-2.55-1.37-5.67-2.24-9.36l-5.88,23.32h11.54Z"/>
    </g>
    <g class="st41">
      <rect class="st10" x="18.38" y="91.67" width="55.24" height="84.09"/>
    </g>
    <g class="st38">
      <path class="st1" d="M18.38,105.44c0-7.61,6.17-13.77,13.77-13.77h41.47v11.42h-29.06c-1.45,0-2.62,1.17-2.62,2.62v18.68c0,1.44,1.17,2.62,2.62,2.62h24.47v10.96h-24.47c-1.45,0-2.62,1.17-2.62,2.61v21.42c0,7.61-6.17,13.77-13.77,13.77h-7.17c-1.45,0-2.62-1.17-2.62-2.62v-67.7Z"/>
    </g>
    <g class="st35">
      <rect class="st9" x="76.27" y="91.67" width="69.73" height="84.09"/>
    </g>
    <g class="st39">
      <path class="st1" d="M86.61,175.76h-10.34v-70.88c0-7.3,5.92-13.22,13.22-13.22h16.7c2.9,0,5.47.06,7.71.17,2.24.12,4.24.35,6.01.71,1.77.36,3.36.81,4.77,1.36,1.41.55,2.75,1.3,4.01,2.23h.12c2.51,1.89,4.44,4.26,5.77,7.13,1.33,2.87,2,6.07,2,9.6.08,5.1-1.2,9.41-3.82,12.9-2.64,3.5-6.42,6.03-11.37,7.59l24.61,42.4-26.5-.23-19.67-34.39v21.41c0,7.3-5.92,13.21-13.22,13.21ZM100.65,127c4.08,0,6.96-.9,8.65-2.71,1.69-1.81,2.53-4.99,2.53-9.54s-.79-7.44-2.35-9.13c-1.57-1.69-4.24-2.53-8.01-2.53h-1.65v23.91h.82Z"/>
    </g>
    <g class="st36">
      <rect class="st6" x="146.7" y="91.67" width="56.42" height="84.09"/>
    </g>
    <g class="st67">
      <path class="st1" d="M146.7,96.07c0-2.43,1.97-4.41,4.41-4.41h50.95v11.42h-27.39c-2.43,0-4.41,1.97-4.41,4.41v15.09c0,2.43,1.97,4.41,4.41,4.41h12.56v11.66h-12.56c-2.43,0-4.41,1.97-4.41,4.41v16.4c0,2.43,1.97,4.41,4.41,4.41h28.45v11.66l-51.99.22c-2.44.01-4.43-1.97-4.43-4.41v-75.26Z"/>
    </g>
    <g class="st68">
      <rect class="st21" x="205.76" y="91.67" width="56.42" height="84.09"/>
    </g>
    <g class="st69">
      <path class="st1" d="M205.76,96.07c0-2.43,1.97-4.41,4.41-4.41h50.95v11.42h-27.39c-2.43,0-4.41,1.97-4.41,4.41v15.09c0,2.43,1.97,4.41,4.41,4.41h12.56v11.66h-12.56c-2.43,0-4.41,1.97-4.41,4.41v16.4c0,2.43,1.97,4.41,4.41,4.41h28.45v11.66l-51.99.22c-2.44.01-4.43-1.97-4.43-4.41v-75.26Z"/>
    </g>
    <g class="st70">
      <rect class="st20" x="266.5" y="90.02" width="56.42" height="86.92"/>
    </g>
    <g class="st71">
      <path class="st1" d="M266.5,156.44l2.94,1.54c2.83,1.26,5.28,2.25,7.36,3,2.08.74,4.3,1.41,6.66,2,2.35.59,4.55.89,6.6.89,1.26,0,2.49-.2,3.71-.59,1.22-.39,2.3-.94,3.24-1.65.94-.71,1.7-1.56,2.3-2.54.59-.98.84-2.06.77-3.23,0-.94-.06-1.73-.18-2.36-.12-.63-.43-1.27-.94-1.94-.51-.67-1.32-1.43-2.42-2.3-1.1-.86-2.63-1.96-4.6-3.3l-10.01-6.95c-2.67-1.88-4.93-3.69-6.77-5.42-1.84-1.73-3.36-3.51-4.53-5.36-1.18-1.84-2.04-3.78-2.59-5.83-.55-2.04-.82-4.28-.82-6.72,0-3.69.65-7.11,1.94-10.25,1.3-3.14,3.1-5.85,5.42-8.13,2.31-2.28,5.07-4.06,8.25-5.36,3.18-1.3,6.61-1.94,10.3-1.94,2.98,0,6.73.45,11.25,1.35,4.52.9,9.37,2.02,14.55,3.36l1.41.35v13.66l-2.59-1.18c-2.59-1.02-4.83-1.84-6.71-2.47-1.89-.63-3.89-1.19-6.01-1.7-2.12-.51-4-.77-5.65-.77-2.52,0-4.71.73-6.6,2.18-1.88,1.45-2.78,3.4-2.71,5.83,0,.94.08,1.75.24,2.42.16.67.49,1.32,1,1.95.51.63,1.26,1.33,2.24,2.12.98.79,2.3,1.73,3.95,2.83l11.66,7.89c2.43,1.65,4.51,3.28,6.24,4.89,1.73,1.61,3.16,3.3,4.3,5.07,1.13,1.77,1.96,3.67,2.47,5.71.51,2.04.77,4.32.77,6.83,0,3.77-.73,7.29-2.18,10.54-1.45,3.26-3.44,6.09-5.95,8.48-2.51,2.4-5.48,4.26-8.89,5.6-3.42,1.33-7.13,2-11.13,2-2.91,0-6.34-.31-10.3-.94-3.97-.63-8.66-1.77-14.07-3.42l-3.89-1.18v-14.96Z"/>
    </g>
    <g class="st72">
      <rect class="st17" x="324.9" y="91.67" width="23.56" height="84.09"/>
    </g>
    <g class="st65">
      <rect class="st1" x="324.9" y="91.67" width="23.56" height="84.09" rx="3.94" ry="3.94"/>
    </g>
    <g class="st63">
      <rect class="st16" x="351.37" y="91.43" width="73.31" height="84.33"/>
    </g>
    <g class="st66">
      <path class="st1" d="M352.26,169.94l23.26-75.34c.58-1.88,2.32-3.17,4.3-3.17h18.26c2.01,0,3.77,1.33,4.33,3.26l21.46,75.34c.82,2.87-1.34,5.73-4.32,5.73h-16.04c-2.09,0-3.9-1.44-4.38-3.47l-5.2-22.26c-.48-2.03-2.29-3.47-4.38-3.47h-10.18c-2.09,0-3.9,1.44-4.38,3.47l-5.21,22.26c-.48,2.03-2.29,3.47-4.38,3.47h-8.84c-3.03,0-5.19-2.93-4.3-5.82ZM390.28,135.59c-.39-1.57-.9-3.65-1.53-6.24-.63-2.59-1.26-5.16-1.89-7.72-.62-2.55-1.37-5.67-2.24-9.36l-5.88,23.32h11.54Z"/>
    </g>
    <g class="st64">
      <rect class="st34" x="18.38" y="89.35" width="55.24" height="84.09"/>
    </g>
    <g class="st59">
      <path class="st3" d="M18.38,103.12c0-7.61,6.17-13.77,13.77-13.77h41.47v11.42h-29.06c-1.45,0-2.62,1.17-2.62,2.62v18.68c0,1.44,1.17,2.61,2.62,2.61h24.47v10.96h-24.47c-1.45,0-2.62,1.17-2.62,2.62v21.42c0,7.61-6.17,13.77-13.77,13.77h-7.17c-1.45,0-2.62-1.17-2.62-2.62v-67.7Z"/>
    </g>
    <g class="st53">
      <rect class="st23" x="76.27" y="89.35" width="69.73" height="84.09"/>
    </g>
    <g class="st54">
      <path class="st3" d="M86.61,173.44h-10.34v-70.88c0-7.3,5.92-13.22,13.22-13.22h16.7c2.9,0,5.47.06,7.71.17,2.24.12,4.24.35,6.01.71,1.77.36,3.36.81,4.77,1.36,1.41.55,2.75,1.3,4.01,2.23h.12c2.51,1.89,4.44,4.26,5.77,7.13,1.33,2.87,2,6.07,2,9.6.08,5.1-1.2,9.41-3.82,12.9-2.64,3.5-6.42,6.03-11.37,7.59l24.61,42.4-26.5-.23-19.67-34.39v21.41c0,7.3-5.92,13.21-13.22,13.21ZM100.65,124.68c4.08,0,6.96-.9,8.65-2.71,1.69-1.81,2.53-4.99,2.53-9.54s-.79-7.44-2.35-9.13c-1.57-1.69-4.24-2.53-8.01-2.53h-1.65v23.91h.82Z"/>
    </g>
    <g class="st55">
      <rect class="st18" x="146.7" y="89.35" width="56.42" height="84.09"/>
    </g>
    <g class="st56">
      <path class="st3" d="M146.7,93.76c0-2.43,1.97-4.41,4.41-4.41h50.95v11.42h-27.39c-2.43,0-4.41,1.97-4.41,4.41v15.09c0,2.43,1.97,4.41,4.41,4.41h12.56v11.66h-12.56c-2.43,0-4.41,1.97-4.41,4.41v16.4c0,2.43,1.97,4.41,4.41,4.41h28.45v11.66l-51.99.22c-2.44.01-4.43-1.97-4.43-4.41v-75.26Z"/>
    </g>
    <g class="st57">
      <rect class="st19" x="205.76" y="89.35" width="56.42" height="84.09"/>
    </g>
    <g class="st60">
      <path class="st3" d="M205.76,93.76c0-2.43,1.97-4.41,4.41-4.41h50.95v11.42h-27.39c-2.43,0-4.41,1.97-4.41,4.41v15.09c0,2.43,1.97,4.41,4.41,4.41h12.56v11.66h-12.56c-2.43,0-4.41,1.97-4.41,4.41v16.4c0,2.43,1.97,4.41,4.41,4.41h28.45v11.66l-51.99.22c-2.44.01-4.43-1.97-4.43-4.41v-75.26Z"/>
    </g>
    <g class="st61">
      <rect class="st22" x="266.5" y="87.7" width="56.42" height="86.93"/>
    </g>
    <g class="st62">
      <path class="st3" d="M266.5,154.13l2.94,1.54c2.83,1.26,5.28,2.26,7.36,3,2.08.74,4.3,1.41,6.66,2,2.35.59,4.55.89,6.6.89,1.26,0,2.49-.2,3.71-.59s2.3-.94,3.24-1.65c.94-.71,1.7-1.56,2.3-2.54.59-.98.84-2.06.77-3.23,0-.94-.06-1.73-.18-2.36-.12-.63-.43-1.27-.94-1.94-.51-.67-1.32-1.43-2.42-2.3-1.1-.86-2.63-1.96-4.6-3.3l-10.01-6.95c-2.67-1.88-4.93-3.69-6.77-5.42-1.84-1.73-3.36-3.51-4.53-5.36-1.18-1.84-2.04-3.78-2.59-5.83-.55-2.04-.82-4.28-.82-6.72,0-3.69.65-7.11,1.94-10.25,1.3-3.14,3.1-5.85,5.42-8.13,2.31-2.28,5.07-4.06,8.25-5.36,3.18-1.3,6.61-1.94,10.3-1.94,2.98,0,6.73.45,11.25,1.35,4.52.9,9.37,2.02,14.55,3.36l1.41.35v13.66l-2.59-1.18c-2.59-1.02-4.83-1.84-6.71-2.47-1.89-.63-3.89-1.19-6.01-1.7-2.12-.51-4-.77-5.65-.77-2.52,0-4.71.73-6.6,2.18-1.88,1.45-2.78,3.4-2.71,5.83,0,.94.08,1.75.24,2.42.16.67.49,1.32,1,1.95.51.63,1.26,1.33,2.24,2.12.98.79,2.3,1.73,3.95,2.83l11.66,7.89c2.43,1.65,4.51,3.28,6.24,4.89,1.73,1.61,3.16,3.3,4.3,5.07,1.13,1.77,1.96,3.67,2.47,5.71.51,2.04.77,4.32.77,6.83,0,3.77-.73,7.29-2.18,10.54-1.45,3.26-3.44,6.09-5.95,8.48-2.51,2.4-5.48,4.26-8.89,5.6-3.42,1.33-7.13,2-11.13,2-2.91,0-6.34-.31-10.3-.94-3.97-.63-8.66-1.77-14.07-3.42l-3.89-1.17v-14.96Z"/>
    </g>
    <g class="st58">
      <rect class="st15" x="324.9" y="89.35" width="23.56" height="84.09"/>
    </g>
    <g class="st79">
      <rect class="st3" x="324.9" y="89.35" width="23.56" height="84.09" rx="3.94" ry="3.94"/>
    </g>
    <g class="st73">
      <rect class="st24" x="349.06" y="89.11" width="73.31" height="84.33"/>
    </g>
    <g class="st74">
      <path class="st3" d="M349.95,167.62l23.26-75.34c.58-1.88,2.32-3.17,4.3-3.17h18.26c2.01,0,3.77,1.33,4.33,3.26l21.46,75.34c.82,2.87-1.34,5.73-4.32,5.73h-16.04c-2.09,0-3.9-1.44-4.38-3.47l-5.2-22.26c-.48-2.03-2.29-3.47-4.38-3.47h-10.18c-2.09,0-3.9,1.44-4.38,3.47l-5.21,22.26c-.48,2.03-2.29,3.47-4.38,3.47h-8.84c-3.03,0-5.19-2.93-4.3-5.82ZM387.96,133.28c-.39-1.57-.9-3.65-1.53-6.24-.63-2.59-1.26-5.16-1.89-7.72-.63-2.55-1.37-5.67-2.24-9.36l-5.88,23.32h11.54Z"/>
    </g>
    <g class="st75">
      <rect class="st94" x="18.38" y="89.35" width="55.24" height="84.09"/>
    </g>
    <g class="st76">
      <rect class="st30" x="76.27" y="89.35" width="69.73" height="84.09"/>
    </g>
    <g class="st77">
      <rect class="st29" x="146.7" y="89.35" width="56.42" height="84.09"/>
    </g>
    <g class="st80">
      <rect class="st26" x="205.76" y="89.35" width="56.42" height="84.09"/>
    </g>
    <g class="st81">
      <rect class="st25" x="266.5" y="87.7" width="56.42" height="86.93"/>
    </g>
    <g class="st82">
      <rect class="st27" x="324.9" y="89.35" width="23.56" height="84.09"/>
    </g>
    <g class="st78">
      <rect class="st28" x="349.06" y="89.11" width="73.31" height="84.33"/>
    </g>
    <g class="st45">
      <rect class="st32" x="307.5" y="27.34" width="70.52" height="71.57" transform="translate(107.95 320.67) rotate(-58.08)"/>
    </g>
    <g class="st52">
      <path class="st92" d="M349.3,78.49c-6.4,2.97-14.07.81-19.3-3.51l-.07-.62.58-.1c5.34,3.64,12.2,5.37,18.47,3.42.5-.17.81.6.33.82"/>
    </g>
    <g class="st47">
      <rect class="st31" x="297.6" y="6.54" width="43.68" height="42.77" transform="translate(21.64 146.82) rotate(-26.76)"/>
    </g>
    <g class="st51">
      <path class="st92" d="M321.49,15.55c4.49.34,7.98,4.13,9.28,8.23l-.28.56-.53-.21c-1.77-3.62-4.77-6.55-8.63-7.72-.49-.14-.34-.91.16-.86"/>
    </g>
    <g class="st49">
      <rect class="st13" x="352.92" y="19.84" width="28.53" height="28.3" transform="translate(53.68 228.14) rotate(-37.06)"/>
    </g>
    <g class="st46">
      <path class="st92" d="M359.92,33.39c-.22-2.8,1.69-5.4,4.06-6.68l.3.09-.06.28c-2.07,1.48-3.65,3.71-3.86,6.28,0,.27-.42.3-.44.03"/>
    </g>
    <g class="st50">
      <rect class="st14" x="343.98" y="-2.64" width="20.11" height="19.68" transform="translate(33.11 156.87) rotate(-26.17)"/>
    </g>
    <g class="st48">
      <path class="st92" d="M353.04,11.97c-2.07-.18-3.71-1.95-4.26-3.86l.15-.28.26.12c.81,1.68,2.17,3.04,3.91,3.58.26.05.21.46-.05.44"/>
      <path class="st33" d="M130.45,303.49l219.74-55.4-218.15,61.38c-3.96,1.04-5.6-4.89-1.6-5.98"/>
    </g>
  </g>
</svg>